<?xml version="1.0" encoding="UTF-8" standalone="no"?><!DOCTYPE svg PUBLIC "-//W3C//DTD SVG 1.1//EN" "http://www.w3.org/Graphics/SVG/1.1/DTD/svg11.dtd"><svg width="100%" height="100%" viewBox="0 0 8334 8334" version="1.1" xmlns="http://www.w3.org/2000/svg" xmlns:xlink="http://www.w3.org/1999/xlink" xml:space="preserve" xmlns:serif="http://www.serif.com/" style="fill-rule:evenodd;clip-rule:evenodd;stroke-linejoin:round;stroke-miterlimit:2;"><g><g id="Combined"><g id="Subtitle"><path d="M896.757,7553.28c14.178,-25.124 33.534,-44.704 58.044,-58.976c24.522,-14.155 51.758,-21.231 81.706,-21.231c35.149,-0 65.853,8.492 92.085,25.477c26.233,16.867 45.33,40.93 57.384,72.187l-50.46,-0c-8.929,-19.462 -21.821,-34.442 -38.618,-44.94c-16.808,-10.498 -36.954,-15.688 -60.391,-15.688c-22.529,0 -42.746,5.19 -60.639,15.688c-17.894,10.498 -31.953,25.36 -42.121,44.704c-10.18,19.226 -15.263,41.873 -15.263,67.705c0,25.713 5.083,48.124 15.263,67.35c10.168,19.345 24.227,34.207 42.121,44.705c17.893,10.497 38.11,15.687 60.639,15.687c23.437,-0 43.583,-5.19 60.391,-15.452c16.797,-10.38 29.689,-25.241 38.618,-44.704l50.46,0c-12.054,30.904 -31.151,54.73 -57.384,71.479c-26.232,16.868 -56.936,25.242 -92.085,25.242c-29.948,0 -57.184,-6.959 -81.706,-20.995c-24.51,-14.037 -43.866,-33.617 -58.044,-58.622c-14.225,-24.888 -21.314,-53.197 -21.314,-84.69c-0,-31.376 7.089,-59.684 21.314,-84.926Z" style="fill:#fff;fill-rule:nonzero;"/><path d="M1466.4,7756.28c13.258,-7.077 23.98,-17.811 32.189,-31.965c8.139,-14.154 12.267,-31.493 12.267,-51.781c0,-20.406 -4.045,-37.627 -12.055,-51.9c-8.009,-14.153 -18.518,-24.769 -31.446,-31.611c-12.963,-6.959 -27.022,-10.497 -42.12,-10.497c-15.428,0 -29.571,3.538 -42.369,10.497c-12.809,6.842 -23.06,17.458 -30.738,31.611c-7.714,14.273 -11.595,31.494 -11.595,51.9c0,20.641 3.798,38.098 11.347,52.252c7.549,14.273 17.634,24.771 30.314,31.73c12.632,6.959 26.528,10.38 41.625,10.38c15.134,-0 29.311,-3.539 42.581,-10.616Zm-107.1,31.493c-19.31,-10.852 -34.408,-26.185 -45.365,-46.119c-10.982,-19.934 -16.443,-42.935 -16.443,-69.12c-0,-25.95 5.638,-48.833 16.891,-68.767c11.264,-19.934 26.61,-35.149 46.037,-45.765c19.438,-10.616 41.213,-16.042 65.275,-16.042c24.062,0 45.789,5.426 65.228,16.042c19.473,10.616 34.783,25.831 46.083,45.53c11.253,19.816 16.891,42.817 16.891,69.002c0,26.185 -5.803,49.186 -17.398,69.12c-11.548,19.934 -27.188,35.267 -46.957,46.119c-19.721,10.734 -41.625,16.16 -65.723,16.16c-23.732,-0 -45.246,-5.426 -64.519,-16.16Z" style="fill:#fff;fill-rule:nonzero;"/><path d="M1861.17,7622.52c-7.714,-14.154 -18.153,-25.124 -31.28,-32.555c-13.093,-7.667 -27.53,-11.441 -43.253,-11.441c-15.712,0 -30.067,3.774 -43.03,11.088c-12.974,7.43 -23.319,18.282 -30.997,32.436c-7.703,14.154 -11.595,30.904 -11.595,50.012c-0,19.462 3.892,36.329 11.595,50.72c7.678,14.272 18.023,25.241 30.997,32.79c12.963,7.549 27.318,11.324 43.03,11.324c15.723,-0 30.16,-3.775 43.253,-11.324c13.127,-7.549 23.566,-18.518 31.28,-32.79c7.668,-14.391 11.548,-31.14 11.548,-50.248c-0,-19.109 -3.88,-35.858 -11.548,-50.012Zm-187.461,-18.755c10.51,-19.579 24.935,-34.795 43.289,-45.529c18.353,-10.852 38.782,-16.278 61.299,-16.278c22.234,0 41.496,4.837 57.844,14.391c16.348,9.554 28.532,21.585 36.577,36.093l-0,-46.237l42.581,-0l0,253.597l-42.581,-0l-0,-47.298c-8.339,14.861 -20.771,27.129 -37.237,36.801c-16.526,9.789 -35.74,14.626 -57.632,14.626c-22.529,-0 -42.876,-5.544 -61.111,-16.632c-18.176,-11.087 -32.519,-26.775 -43.029,-46.827c-10.475,-19.934 -15.723,-42.816 -15.723,-68.412c0,-25.95 5.248,-48.714 15.723,-68.295Z" style="fill:#fff;fill-rule:nonzero;"/><path d="M2051.35,7603.76c10.498,-19.579 25.065,-34.795 43.749,-45.529c18.683,-10.852 40.033,-16.278 64.095,-16.278c31.151,0 56.841,7.55 77.023,22.765c20.229,15.098 33.581,36.093 40.033,62.869l-45.329,-0c-4.329,-15.452 -12.715,-27.601 -25.23,-36.565c-12.468,-8.965 -27.99,-13.329 -46.497,-13.329c-24.062,0 -43.501,8.257 -58.304,24.652c-14.803,16.514 -22.222,39.868 -22.222,70.182c-0,30.55 7.419,54.14 22.222,70.771c14.803,16.632 34.242,25.006 58.304,25.006c18.507,-0 33.947,-4.364 46.284,-12.975c12.303,-8.611 20.819,-20.995 25.443,-37.037l45.329,0c-6.747,25.95 -20.347,46.71 -40.693,62.279c-20.359,15.57 -45.837,23.355 -76.363,23.355c-24.062,-0 -45.412,-5.426 -64.095,-16.16c-18.684,-10.852 -33.251,-26.067 -43.749,-45.883c-10.474,-19.698 -15.723,-42.817 -15.723,-69.356c0,-26.185 5.249,-49.186 15.723,-68.767Z" style="fill:#fff;fill-rule:nonzero;"/><path d="M2574.28,7553.75c15.428,8.256 27.554,20.523 36.365,36.801c8.752,16.395 13.175,36.329 13.175,59.802l0,149.445l-41.661,-0l-0,-143.548c-0,-25.242 -6.346,-44.585 -18.978,-58.032c-12.633,-13.447 -29.901,-20.17 -51.84,-20.17c-22.187,-0 -39.868,6.959 -52.961,20.878c-13.14,13.918 -19.686,34.088 -19.686,60.627l-0,140.245l-42.121,-0l0,-342.533l42.121,-0l-0,125.029c8.339,-12.975 19.816,-23 34.489,-30.078c14.638,-7.195 31.069,-10.733 49.292,-10.733c19.108,-0 36.365,4.128 51.805,12.267Z" style="fill:#fff;fill-rule:nonzero;"/><path d="M2799.18,7546.2l-0,253.597l-42.109,-0l-0,-253.597l42.109,-0Zm-40.694,-49.54c-5.544,-5.544 -8.339,-12.385 -8.339,-20.406c-0,-8.021 2.795,-14.744 8.339,-20.406c5.544,-5.426 12.338,-8.256 20.347,-8.256c7.714,-0 14.26,2.83 19.686,8.256c5.379,5.662 8.091,12.385 8.091,20.406c0,8.021 -2.712,14.862 -8.091,20.406c-5.426,5.544 -11.972,8.374 -19.686,8.374c-8.009,0 -14.803,-2.83 -20.347,-8.374Z" style="fill:#fff;fill-rule:nonzero;"/><path d="M3133.78,7569.56c19.097,18.636 28.686,45.529 28.686,80.797l-0,149.445l-41.661,-0l-0,-143.548c-0,-25.242 -6.346,-44.585 -18.978,-58.032c-12.633,-13.447 -29.902,-20.17 -51.841,-20.17c-22.186,-0 -39.867,6.959 -52.96,20.878c-13.14,13.918 -19.686,34.088 -19.686,60.627l-0,140.245l-42.121,-0l0,-253.597l42.121,-0l-0,36.093c8.339,-12.975 19.686,-23 34.029,-30.078c14.355,-7.195 30.148,-10.733 47.416,-10.733c30.857,-0 55.851,9.436 74.995,28.073Z" style="fill:#fff;fill-rule:nonzero;"/><path d="M3483.63,7622.52c-7.714,-14.154 -18.141,-25.124 -31.281,-32.555c-13.081,-7.667 -27.518,-11.441 -43.241,-11.441c-15.723,0 -30.066,3.774 -43.041,11.088c-12.963,7.43 -23.307,18.282 -30.986,32.436c-7.714,14.154 -11.594,30.904 -11.594,50.012c-0,19.462 3.88,36.329 11.594,50.72c7.679,14.272 18.023,25.241 30.986,32.79c12.975,7.549 27.318,11.324 43.041,11.324c15.723,-0 30.16,-3.775 43.241,-11.324c13.14,-7.549 23.567,-18.518 31.281,-32.79c7.679,-14.391 11.56,-31.14 11.56,-50.248c-0,-19.109 -3.881,-35.858 -11.56,-50.012Zm-25.23,-66.171c16.478,9.554 28.733,21.585 36.79,36.093l-0,-46.237l42.581,-0l-0,259.141c-0,23.119 -4.966,43.761 -14.804,61.807c-9.896,17.929 -24.026,32.083 -42.38,42.345c-18.341,10.144 -39.702,15.216 -64.06,15.216c-33.31,-0 -61.087,-7.903 -83.321,-23.591c-22.187,-15.688 -35.327,-37.155 -39.325,-64.284l41.66,0c4.636,15.334 14.178,27.837 28.698,37.155c14.473,9.437 31.894,14.155 52.288,14.155c23.107,-0 42.003,-7.196 56.676,-21.704c14.65,-14.508 21.987,-34.914 21.987,-61.099l-0,-53.196c-8.34,14.744 -20.689,27.128 -37.037,36.919c-16.348,9.908 -35.493,14.862 -57.384,14.862c-22.517,-0 -42.959,-5.544 -61.3,-16.632c-18.353,-11.087 -32.79,-26.775 -43.301,-46.827c-10.462,-19.934 -15.71,-42.816 -15.71,-68.412c-0,-25.95 5.248,-48.714 15.71,-68.295c10.511,-19.579 24.948,-34.795 43.301,-45.529c18.341,-10.852 38.783,-16.278 61.3,-16.278c21.891,0 41.118,4.837 57.631,14.391Z" style="fill:#fff;fill-rule:nonzero;"/><path d="M4001.23,7759.46c13.423,-6.488 26.15,-16.513 38.157,-30.078l-94.833,-95.306c-39.491,15.098 -59.259,39.042 -59.259,71.715c-0,18.283 6.546,33.381 19.674,45.412c13.104,12.031 30.16,18.047 51.132,18.047c16.69,-0 31.694,-3.303 45.129,-9.79Zm108.056,40.339l-42.121,-42.581c-15.723,16.278 -32.531,28.427 -50.425,36.33c-17.893,7.784 -38.11,11.795 -60.639,11.795c-22.222,0 -41.861,-4.011 -59,-12.031c-17.103,-8.021 -30.372,-19.462 -39.797,-34.324c-9.424,-14.744 -14.095,-32.083 -14.095,-51.781c0,-22.529 6.381,-42.345 19.191,-59.448c12.798,-17.103 31.694,-30.668 56.676,-40.458c-9.849,-11.795 -16.986,-22.529 -21.267,-32.436c-4.34,-9.909 -6.476,-20.642 -6.476,-32.437c0,-13.565 3.468,-25.832 10.392,-36.802c6.959,-10.97 16.891,-19.462 29.854,-25.596c12.975,-6.251 27.907,-9.318 44.881,-9.318c16.679,0 31.151,3.303 43.501,9.791c12.337,6.487 21.597,15.451 27.766,27.011c6.169,11.559 8.964,24.416 8.351,38.688l-42.133,-0c0.295,-12.739 -3.255,-22.647 -10.627,-29.842c-7.432,-7.313 -16.986,-10.97 -28.698,-10.97c-12.35,0 -22.305,3.539 -29.854,10.498c-7.561,6.959 -11.347,15.806 -11.347,26.54c-0,9.318 2.536,18.282 7.632,26.892c5.13,8.611 13.682,19.227 25.689,31.966l96.25,96.721l8.339,-12.975l31.493,-52.843l45.329,0l-37.945,65.818c-5.26,9.2 -11.429,18.872 -18.519,29.134l72.695,72.658l-55.096,-0Z" style="fill:#fff;fill-rule:nonzero;"/><path d="M4461.9,7553.28c14.153,-25.124 33.616,-44.704 58.02,-58.976c24.546,-14.155 51.781,-21.231 81.753,-21.231c35.149,-0 65.805,8.492 92.108,25.477c26.198,16.867 45.307,40.93 57.338,72.187l-50.484,-0c-8.846,-19.462 -21.703,-34.442 -38.571,-44.94c-16.761,-10.498 -36.919,-15.688 -60.391,-15.688c-22.529,0 -42.699,5.19 -60.628,15.688c-17.929,10.498 -31.964,25.36 -42.108,44.704c-10.144,19.226 -15.216,41.873 -15.216,67.705c-0,25.713 5.072,48.124 15.216,67.35c10.144,19.345 24.179,34.207 42.108,44.705c17.929,10.497 38.099,15.687 60.628,15.687c23.472,-0 43.63,-5.19 60.391,-15.452c16.868,-10.38 29.725,-25.241 38.571,-44.704l50.484,0c-12.031,30.904 -31.14,54.73 -57.338,71.479c-26.303,16.868 -56.959,25.242 -92.108,25.242c-29.972,0 -57.207,-6.959 -81.753,-20.995c-24.404,-14.037 -43.867,-33.617 -58.02,-58.622c-14.155,-24.888 -21.232,-53.197 -21.232,-84.69c-0,-31.376 7.077,-59.684 21.232,-84.926Z" style="fill:#fff;fill-rule:nonzero;"/><path d="M5031.14,7756.28c13.21,-7.077 23.943,-17.811 32.2,-31.965c8.138,-14.154 12.268,-31.493 12.268,-51.781c-0,-20.406 -4.13,-37.627 -12.031,-51.9c-8.022,-14.153 -18.638,-24.769 -31.494,-31.611c-12.975,-6.959 -27.012,-10.497 -42.109,-10.497c-15.452,0 -29.606,3.538 -42.345,10.497c-12.857,6.842 -23.119,17.458 -30.786,31.611c-7.667,14.273 -11.559,31.494 -11.559,51.9c0,20.641 3.774,38.098 11.323,52.252c7.549,14.273 17.575,24.771 30.315,31.73c12.62,6.959 26.539,10.38 41.637,10.38c15.097,-0 29.252,-3.539 42.581,-10.616Zm-107.102,31.493c-19.344,-10.852 -34.441,-26.185 -45.411,-46.119c-10.969,-19.934 -16.396,-42.935 -16.396,-69.12c0,-25.95 5.662,-48.833 16.868,-68.767c11.205,-19.934 26.657,-35.149 46.002,-45.765c19.461,-10.616 41.283,-16.042 65.344,-16.042c24.063,0 45.766,5.426 65.228,16.042c19.463,10.616 34.796,25.831 46.002,45.53c11.323,19.816 16.984,42.817 16.984,69.002c0,26.185 -5.897,49.186 -17.456,69.12c-11.559,19.934 -27.128,35.267 -46.945,46.119c-19.699,10.734 -41.638,16.16 -65.699,16.16c-23.708,-0 -45.295,-5.426 -64.521,-16.16Z" style="fill:#fff;fill-rule:nonzero;"/><path d="M5437.48,7569.56c19.108,18.636 28.663,45.529 28.663,80.797l-0,149.445l-41.638,-0l0,-143.548c0,-25.242 -6.369,-44.585 -18.99,-58.032c-12.621,-13.447 -29.96,-20.17 -51.899,-20.17c-22.175,-0 -39.868,6.959 -52.961,20.878c-13.092,13.918 -19.698,34.088 -19.698,60.627l-0,140.245l-42.108,-0l-0,-253.597l42.108,-0l-0,36.093c8.376,-12.975 19.698,-23 34.088,-30.078c14.39,-7.195 30.197,-10.733 47.417,-10.733c30.904,-0 55.792,9.436 75.018,28.073Z" style="fill:#fff;fill-rule:nonzero;"/><path d="M5636.82,7794.02c-15.335,-6.723 -27.601,-15.923 -36.447,-27.836c-8.965,-11.795 -13.919,-25.478 -14.862,-40.929l43.523,-0c1.18,12.62 7.195,23 17.811,31.021c10.616,8.021 24.652,12.031 41.874,12.031c16.041,-0 28.662,-3.538 37.98,-10.615c9.201,-7.196 13.801,-16.042 13.801,-26.894c0,-11.087 -4.954,-19.344 -14.744,-24.77c-9.909,-5.426 -25.124,-10.734 -45.884,-15.924c-18.755,-4.953 -34.088,-10.025 -46.001,-15.097c-11.914,-5.072 -22.057,-12.621 -30.549,-22.647c-8.494,-10.026 -12.74,-23.237 -12.74,-39.514c-0,-12.975 3.893,-24.888 11.559,-35.622c7.785,-10.851 18.755,-19.462 32.909,-25.713c14.154,-6.37 30.315,-9.555 48.596,-9.555c28.073,0 50.72,7.195 67.941,21.35c17.339,14.154 26.539,33.617 27.837,58.268l-42.109,0c-0.944,-13.21 -6.252,-23.944 -16.041,-31.964c-9.673,-7.904 -22.648,-11.914 -39.043,-11.914c-15.098,0 -27.13,3.185 -36.093,9.672c-8.964,6.488 -13.446,14.98 -13.446,25.478c-0,8.257 2.712,15.098 8.138,20.523c5.425,5.427 12.149,9.791 20.405,12.976c8.14,3.184 19.463,6.84 33.97,10.851c18.166,4.954 33.028,9.79 44.469,14.626c11.323,4.718 21.114,11.913 29.252,21.467c8.257,9.555 12.503,22.057 12.739,37.509c0,13.918 -3.775,26.421 -11.56,37.509c-7.666,11.087 -18.518,19.816 -32.554,26.186c-14.037,6.251 -30.196,9.436 -48.361,9.436c-19.461,-0 -36.919,-3.303 -52.37,-9.909Z" style="fill:#fff;fill-rule:nonzero;"/><path d="M6130.69,7546.2l-0,253.597l-42.11,-0l0,-37.509c-8.02,12.975 -19.225,23.001 -33.616,30.314c-14.272,7.195 -30.077,10.851 -47.417,10.851c-19.697,0 -37.508,-4.009 -53.195,-12.266c-15.807,-8.139 -28.191,-20.406 -37.274,-36.801c-9.082,-16.278 -13.682,-36.212 -13.682,-59.684l-0,-148.502l41.755,-0l0,142.958c0,25.006 6.252,44.233 18.872,57.679c12.739,13.328 29.961,20.052 51.9,20.052c22.527,-0 40.22,-6.959 53.196,-20.76c12.975,-13.918 19.461,-34.089 19.461,-60.628l0,-139.301l42.11,-0Z" style="fill:#fff;fill-rule:nonzero;"/><rect x="6266.22" y="7457.27" width="42.108" height="342.533" style="fill:#fff;fill-rule:nonzero;"/><path d="M6496.23,7580.88l0,149.446c0,12.384 2.595,21.113 7.903,26.185c5.19,5.072 14.272,7.667 27.247,7.667l31.021,-0l0,35.621l-37.98,-0c-23.355,-0 -40.929,-5.425 -52.725,-16.277c-11.677,-10.734 -17.574,-28.427 -17.574,-53.196l-0,-149.446l-32.791,-0l-0,-34.678l32.791,-0l-0,-63.93l42.108,-0l0,63.93l66.171,-0l0,34.678l-66.171,-0Z" style="fill:#fff;fill-rule:nonzero;"/><path d="M6719.74,7546.2l0,253.597l-42.108,-0l-0,-253.597l42.108,-0Zm-40.693,-49.54c-5.543,-5.544 -8.374,-12.385 -8.374,-20.406c-0,-8.021 2.831,-14.744 8.374,-20.406c5.544,-5.426 12.268,-8.256 20.288,-8.256c7.785,-0 14.273,2.83 19.698,8.256c5.425,5.662 8.138,12.385 8.138,20.406c0,8.021 -2.713,14.862 -8.138,20.406c-5.425,5.544 -11.913,8.374 -19.698,8.374c-8.02,0 -14.744,-2.83 -20.288,-8.374Z" style="fill:#fff;fill-rule:nonzero;"/><path d="M7054.38,7569.56c18.991,18.636 28.663,45.529 28.663,80.797l-0,149.445l-41.638,-0l0,-143.548c0,-25.242 -6.368,-44.585 -18.99,-58.032c-12.62,-13.447 -29.96,-20.17 -51.899,-20.17c-22.175,-0 -39.868,6.959 -52.961,20.878c-13.092,13.918 -19.697,34.088 -19.697,60.627l0,140.245l-42.11,-0l0,-253.597l42.11,-0l0,36.093c8.374,-12.975 19.697,-23 34.087,-30.078c14.273,-7.195 30.079,-10.733 47.417,-10.733c30.786,-0 55.792,9.436 75.018,28.073Z" style="fill:#fff;fill-rule:nonzero;"/><path d="M7403.75,7622.52c-7.666,-14.154 -18.164,-25.124 -31.257,-32.555c-13.092,-7.667 -27.484,-11.441 -43.289,-11.441c-15.687,0 -30.078,3.774 -43.053,11.088c-12.974,7.43 -23.236,18.282 -30.903,32.436c-7.785,14.154 -11.677,30.904 -11.677,50.012c-0,19.462 3.892,36.329 11.677,50.72c7.667,14.272 17.929,25.241 30.903,32.79c12.975,7.549 27.366,11.324 43.053,11.324c15.805,-0 30.197,-3.775 43.289,-11.324c13.093,-7.549 23.591,-18.518 31.257,-32.79c7.667,-14.391 11.56,-31.14 11.56,-50.248c0,-19.109 -3.893,-35.858 -11.56,-50.012Zm-25.241,-66.171c16.512,9.554 28.78,21.585 36.801,36.093l0,-46.237l42.581,-0l-0,259.141c-0,23.119 -4.955,43.761 -14.862,61.807c-9.791,17.929 -23.945,32.083 -42.345,42.345c-18.283,10.144 -39.633,15.216 -64.049,15.216c-33.262,-0 -61.1,-7.903 -83.275,-23.591c-22.173,-15.688 -35.385,-37.155 -39.395,-64.284l41.755,0c4.601,15.334 14.154,27.837 28.662,37.155c14.391,9.437 31.848,14.155 52.253,14.155c23.119,-0 41.992,-7.196 56.736,-21.704c14.626,-14.508 21.939,-34.914 21.939,-61.099l0,-53.196c-8.376,14.744 -20.642,27.128 -37.037,36.919c-16.396,9.908 -35.504,14.862 -57.325,14.862c-22.529,-0 -43.053,-5.544 -61.336,-16.632c-18.4,-11.087 -32.791,-26.775 -43.287,-46.827c-10.498,-19.934 -15.807,-42.816 -15.807,-68.412c-0,-25.95 5.309,-48.714 15.807,-68.295c10.496,-19.579 24.887,-34.795 43.287,-45.529c18.283,-10.852 38.807,-16.278 61.336,-16.278c21.821,0 41.047,4.837 57.561,14.391Z" style="fill:#fff;fill-rule:nonzero;"/><path d="M1129.51,7020.73c19.345,-16.985 29.016,-40.576 29.016,-70.771c0,-29.252 -10.733,-52.489 -32.188,-69.71c-21.491,-17.221 -49.906,-25.95 -85.292,-25.95l-116.065,0l-0,191.791l122.434,0c35.386,0 62.751,-8.493 82.095,-25.36Zm-204.529,-206.77l115.369,0c33.015,0 58.729,-7.785 77.141,-23.59c18.389,-15.806 27.601,-37.274 27.601,-64.167c-0,-26.775 -9.212,-48.36 -27.601,-64.402c-18.412,-15.923 -44.126,-24.062 -77.141,-24.062l-115.369,0l-0,176.221Zm252.654,62.633c19.344,23.472 29.016,50.011 29.016,79.617c-0,23.709 -6.487,45.412 -19.45,65.228c-12.987,19.698 -31.505,35.504 -55.556,47.063c-24.062,11.559 -51.911,17.339 -83.51,17.339l-172.694,-0l-0,-488.441l164.909,-0c50,-0 88.335,12.149 115.004,36.566c26.633,24.298 39.974,55.555 39.974,93.654c0,54.376 -31.128,89.761 -93.419,106.157c31.14,5.308 56.382,19.58 75.726,42.817Z" style="fill:#fff;fill-rule:nonzero;"/><path d="M1394.55,6753.09c-21.939,12.385 -39.408,30.078 -52.371,53.551c-12.986,23.236 -19.462,50.837 -19.462,82.449c0,31.611 6.606,59.683 19.816,84.1c13.199,24.651 30.656,43.642 52.359,57.088c21.703,13.329 45.305,20.17 70.771,20.17c25.938,0 49.906,-6.487 71.834,-19.58c21.951,-12.857 39.396,-31.257 52.394,-55.202c12.963,-23.708 19.439,-51.427 19.439,-83.038c-0,-31.611 -6.476,-59.448 -19.439,-83.156c-12.998,-23.827 -30.443,-42.227 -52.394,-55.32c-21.928,-12.857 -45.896,-19.344 -71.834,-19.344c-25.466,-0 -49.186,6.133 -71.113,18.282Zm156.051,-35.385c26.409,17.103 46.014,38.924 58.729,65.817l-0,-84.1l49.552,0l-0,386.412l-49.552,-0l-0,-85.044c-12.715,27.012 -32.32,49.069 -58.729,66.289c-26.422,17.222 -57.1,25.714 -92.003,25.714c-34.926,-0 -66.655,-8.492 -95.199,-25.714c-28.544,-17.22 -50.943,-41.4 -67.221,-72.658c-16.29,-31.022 -24.416,-66.171 -24.416,-105.331c-0,-39.161 8.126,-73.603 24.416,-103.445c16.278,-29.606 38.57,-52.724 66.879,-69.002c28.296,-16.159 60.155,-24.416 95.541,-24.416c34.903,0 65.581,8.61 92.003,25.478Z" style="fill:#fff;fill-rule:nonzero;"/><path d="M2089.87,6699.42l-0,386.412l-49.541,-0l0,-62.987c-13.21,23.119 -31.033,40.576 -53.432,52.253c-22.411,11.795 -47.299,17.693 -74.652,17.693c-27.377,-0 -52.512,-6.015 -75.383,-17.929c-22.883,-12.149 -41.166,-30.431 -54.836,-55.319c-13.706,-24.653 -20.536,-54.73 -20.536,-90.116l-0,-230.007l48.832,0l0,220.689c0,42.463 10.262,74.9 30.786,96.957c20.536,22.293 48.478,33.38 83.864,33.38c35.858,0 64.048,-11.087 84.584,-33.38c20.512,-22.057 30.773,-54.494 30.773,-96.957l0,-220.689l49.541,0Z" style="fill:#fff;fill-rule:nonzero;"/><path d="M2546.34,6890.74c14.166,21.585 21.231,47.063 21.231,76.905c0,25.949 -6.499,48.36 -19.462,67.469c-12.987,19.226 -29.724,33.616 -50.248,43.288c-20.523,9.554 -41.873,14.39 -64.048,14.39c-22.186,-0 -43.17,-4.482 -62.974,-13.446c-19.829,-8.847 -35.988,-22.057 -48.491,-39.633c-12.503,-17.338 -18.754,-38.098 -18.754,-62.16l46.709,-0c1.416,21.231 9.306,38.452 23.708,51.663c14.391,13.211 34.325,19.698 59.802,19.698c26.905,-0 47.417,-7.785 61.572,-23.591c14.153,-15.806 21.231,-35.031 21.231,-57.678c-0,-18.047 -5.072,-34.324 -15.216,-49.304c-10.156,-14.863 -26.54,-29.489 -49.186,-44.233l-113.942,-74.309l0,-29.607l26.185,-13.564c32.084,-16.395 48.136,-42.345 48.136,-77.731c0,-23.59 -7.69,-43.052 -23.012,-58.504c-15.334,-15.216 -34.796,-23.001 -58.386,-23.001c-24.534,-0 -44.928,8.139 -61.218,24.063c-16.277,16.159 -24.415,37.154 -24.415,63.104l-0,401.274l-49.54,-0l-0,-398.561c-0,-26.775 6.015,-50.247 18.046,-70.3c12.031,-20.052 28.309,-35.385 48.832,-46.119c20.524,-10.497 43.289,-15.805 68.295,-15.805c28.78,-0 53.078,5.661 72.894,16.985c19.828,11.323 34.678,25.949 44.586,43.878c9.909,17.929 14.862,37.037 14.862,57.207c0,44.94 -22.422,79.382 -67.221,103.444l79.253,50.837c33.014,20.878 56.617,41.992 70.771,63.341Z" style="fill:#fff;fill-rule:nonzero;"/></g><g id="Logo"><path d="M1576.35,1726.59l-224.11,0l0,-1554.96l1648.64,-0l-0,224.109l-1424.53,-0l-0,1330.86Z" style="fill:#fff;fill-rule:nonzero;"/><path d="M6981.09,6780.84l-1648.62,0l0,-224.109l1424.51,-0l-0,-1330.86l224.109,0l-0,1554.97Z" style="fill:#fff;fill-rule:nonzero;"/><path d="M5286.94,1664.15c-196.155,-0 -364.946,72.895 -506.134,218.6c-141.307,145.743 -211.842,321.751 -211.842,528.002c-0,133.417 36.093,261.76 108.397,385.056c72.305,123.343 194.74,227.59 367.422,312.774c432.65,96.426 740.387,-100.319 923.213,-590.21c10.026,-156.947 -6.724,-307.148 -50.484,-450.649c-31.375,-65.003 -74.545,-126.669 -129.511,-184.973c-137.887,-145.705 -304.907,-218.6 -501.061,-218.6Zm-0,-232.048c283.556,0 518.99,102.584 706.18,307.715c172.683,187.224 259.023,409.741 259.023,667.573c2.242,636.743 2.242,960.144 0,970.242l-250.531,-0l0,-418.696c-131.163,244.385 -369.426,381.139 -714.672,410.286c-282.497,-0 -513.211,-96.12 -691.909,-288.382c-178.816,-192.24 -268.224,-416.738 -268.224,-673.45c0,-255.59 84.573,-477.552 253.834,-665.887c187.19,-206.251 422.623,-309.401 706.299,-309.401Z" style="fill:#fff;fill-rule:nonzero;"/><path d="M2213.11,4057.33l238.783,-0l-0,860.934c-0,210.78 11.181,355.39 33.628,433.829c33.628,113.234 98.077,202.642 193.371,268.223c95.27,65.582 209.624,98.373 343.028,98.373c132.273,-0 244.374,-31.966 336.318,-95.896c91.897,-63.93 155.249,-148.03 189.998,-252.182c24.651,-70.653 37.002,-221.397 37.002,-452.347l-0,-860.934l242.167,-0l0,906.346c0,254.423 -30.078,445.859 -89.997,574.192c-59.979,128.332 -149.387,228.709 -268.2,301.014c-118.825,72.304 -267.941,108.398 -447.288,108.398c-180.502,0 -330.702,-36.094 -450.648,-108.398c-119.957,-72.305 -209.625,-173.744 -269.049,-304.318c-59.424,-130.69 -89.113,-327.081 -89.113,-589.407l-0,-887.827Z" style="fill:#fff;fill-rule:nonzero;"/><path d="M2743.55,1786.65c-103.043,60.994 -185.079,147.477 -246.013,259.389c-61.052,111.913 -91.46,242.168 -91.46,390.671c-0,148.549 30.408,278.756 91.46,390.669c60.934,111.96 142.97,198.384 246.013,259.318c103.031,60.994 214.461,91.461 334.112,91.461c119.709,-0 231.139,-31.6 334.23,-94.764c103.031,-63.151 185.621,-152.395 247.64,-267.657c62.067,-115.215 93.089,-247.146 93.089,-395.647c-0,-148.49 -30.432,-277.672 -91.354,-387.367c-61.053,-109.755 -142.982,-193.36 -246.072,-251.05c-103.091,-57.573 -215.605,-86.424 -337.533,-86.424c-119.651,-0 -231.081,30.467 -334.112,91.401Zm819.592,-176.197c132.98,76.469 237.721,184.537 314.154,324.156c76.551,139.68 114.768,301.487 114.768,485.481c-0,184.005 -38.217,349.115 -114.768,495.388c-76.433,146.332 -181.765,259.92 -315.829,340.823c-134.1,80.963 -283.192,121.338 -447.216,121.338c-164.037,-0 -308.092,-40.375 -432.177,-121.338c-124.204,-80.903 -216.148,-184.536 -275.997,-310.899l-0,398.998l-232.755,-0l-0,-2460.46l232.755,-0l-0,1040.72c59.849,-126.361 151.793,-229.405 275.997,-309.223c124.085,-79.772 268.14,-119.711 432.177,-119.711c166.242,0 315.935,38.264 448.891,114.733Z" style="fill:#fff;fill-rule:nonzero;"/><path d="M5880.24,4009.55c-48.242,-87.285 -120.665,-158.646 -217.267,-213.847c-96.486,-55.084 -215.027,-82.803 -355.155,-82.803c-121.963,-0 -232.837,25.938 -332.98,77.613c-29.959,15.451 -58.032,33.026 -84.335,52.842c-16.277,12.149 -31.848,25.007 -46.592,38.807c-41.165,38.098 -76.787,82.33 -106.864,132.578c-58.74,97.664 -88.11,212.09 -88.11,343.124l-0,851.143c-0,131.045 29.37,245.459 88.11,343.124c40.221,67.232 90.234,123.496 150.153,168.79c1.061,0.943 2.24,1.769 3.303,2.594l0,-1379.33c0,-126.563 39.632,-228.828 118.896,-307.03c79.381,-78.202 178.816,-117.244 298.419,-117.244c114.886,-0 209.719,37.39 284.501,112.054c74.664,74.782 112.055,169.616 112.055,284.501c0,172.447 -78.202,299.009 -234.489,379.453l-127.625,65.463l-0,29.961l284.973,-0c3.303,-1.77 6.606,-3.54 9.789,-5.427c1.534,-0.825 2.949,-1.651 4.483,-2.477c207.361,-116.772 311.158,-281.67 311.158,-494.562c-0,-98.726 -24.179,-191.908 -72.423,-279.323Z" style="fill:#fff;fill-rule:nonzero;"/><path d="M5672.53,4794.65c-5.189,-3.067 -10.38,-5.898 -15.805,-8.729l-314.343,0l-0,33.027l140.836,72.187c172.328,88.818 258.668,228.473 258.668,418.73c0,126.681 -41.283,231.305 -123.614,313.871c-82.566,82.332 -187.19,123.615 -313.871,123.615c-77.73,-0 -147.676,-14.862 -209.955,-44.822l-0,247.582c66.289,17.103 136.353,25.714 209.955,25.714c154.518,-0 285.326,-30.669 391.838,-91.414c106.511,-60.863 186.483,-139.655 239.68,-235.904c53.196,-96.485 79.97,-199.34 79.97,-308.21c0,-234.96 -114.531,-416.843 -343.359,-545.647Zm-790.987,685.539l5.661,240.741c1.061,0.943 2.24,1.769 3.303,2.594l0,-223.165c-3.185,-6.606 -6.252,-13.329 -8.964,-20.17Zm-37.628,-1598.02l0,1397.03c0,74.663 12.504,141.661 37.628,200.991l-37.628,-1598.02Z" style="fill:#fff;fill-rule:nonzero;"/><rect x="4648.94" y="5115.12" width="241.566" height="1015.33" style="fill:#fff;fill-rule:nonzero;"/></g></g></g></svg>