<?xml version="1.0" encoding="UTF-8" standalone="no"?><!DOCTYPE svg PUBLIC "-//W3C//DTD SVG 1.1//EN" "http://www.w3.org/Graphics/SVG/1.1/DTD/svg11.dtd"><svg width="100%" height="100%" viewBox="0 0 8334 8334" version="1.1" xmlns="http://www.w3.org/2000/svg" xmlns:xlink="http://www.w3.org/1999/xlink" xml:space="preserve" xmlns:serif="http://www.serif.com/" style="fill-rule:evenodd;clip-rule:evenodd;stroke-linejoin:round;stroke-miterlimit:2;"><g><g><path d="M1778.91,3489.72l-375.531,0l-0,-2605.59l2762.56,0l0,375.531l-2387.03,0l-0,2230.06Z" style="fill-rule:nonzero;"/><path d="M6929.95,7449.2l-2762.52,-0l-0,-375.531l2386.99,0l-0,-2230.06l375.53,-0l0,2605.59Z" style="fill-rule:nonzero;"/><path d="M3598.38,3590.01c-172.666,102.204 -310.129,247.12 -412.234,434.647c-102.303,187.529 -153.257,405.79 -153.257,654.631c0,248.917 50.954,467.099 153.257,654.628c102.105,187.606 239.568,332.424 412.234,434.529c172.645,102.204 359.363,153.256 559.857,153.256c200.592,0 387.31,-52.951 560.054,-158.791c172.647,-105.821 311.039,-255.362 414.962,-448.503c104.003,-193.061 155.984,-414.131 155.984,-662.969c0,-248.819 -50.993,-465.283 -153.078,-649.094c-102.303,-183.912 -239.589,-324.005 -412.333,-420.675c-172.744,-96.471 -361.28,-144.817 -565.589,-144.817c-200.494,0 -387.212,51.053 -559.857,153.158Zm1373.36,-295.246c222.829,128.136 398.339,309.22 526.416,543.174c128.273,234.056 192.311,505.189 192.311,813.5c-0,308.33 -64.038,584.998 -192.311,830.101c-128.077,245.202 -304.576,435.537 -529.222,571.104c-224.706,135.666 -474.533,203.32 -749.382,203.32c-274.869,0 -516.256,-67.654 -724.181,-203.32c-208.123,-135.567 -362.19,-309.22 -462.477,-520.961l0,668.584l-390.018,0l0,-4122.89l390.018,0l0,1743.88c100.287,-211.738 254.354,-384.405 462.477,-518.152c207.925,-133.671 449.312,-200.594 724.181,-200.594c278.566,-0 529.4,64.117 752.188,192.253Z" style="fill-rule:nonzero;"/></g></g></svg>