<?xml version="1.0" encoding="UTF-8" standalone="no"?><!DOCTYPE svg PUBLIC "-//W3C//DTD SVG 1.1//EN" "http://www.w3.org/Graphics/SVG/1.1/DTD/svg11.dtd"><svg width="100%" height="100%" viewBox="0 0 8334 8334" version="1.1" xmlns="http://www.w3.org/2000/svg" xmlns:xlink="http://www.w3.org/1999/xlink" xml:space="preserve" xmlns:serif="http://www.serif.com/" style="fill-rule:evenodd;clip-rule:evenodd;stroke-linejoin:round;stroke-miterlimit:2;"><rect x="-0" y="0" width="8333.33" height="8333.33" style="fill:#1a222c;"/><g><g><path d="M1647.17,4052.2l-535.147,-0l-0,-3713.08l3936.77,0l0,535.148l-3401.62,-0l0,3177.93Z" style="fill:#fff;fill-rule:nonzero;"/><path d="M4240,4195.11c-246.056,145.646 -441.947,352.157 -587.451,619.39c-145.787,267.237 -218.398,578.27 -218.398,932.878c0,354.718 72.611,665.637 218.398,932.874c145.504,267.347 341.395,473.717 587.451,619.222c246.026,145.645 512.108,218.397 797.82,218.397c285.853,-0 551.934,-75.458 798.102,-226.285c246.028,-150.799 443.243,-363.901 591.338,-639.135c148.208,-275.121 222.284,-590.155 222.284,-944.76c-0,-354.577 -72.668,-663.048 -218.143,-924.987c-145.786,-262.083 -341.424,-461.721 -587.592,-599.479c-246.168,-137.477 -514.84,-206.371 -805.989,-206.371c-285.712,0 -551.794,72.752 -797.82,218.256Zm1957.09,-420.738c317.541,182.599 567.651,440.652 750.165,774.047c182.795,333.539 274.051,719.916 274.051,1159.27c0,439.383 -91.256,833.648 -274.051,1182.93c-182.514,349.423 -434.034,620.659 -754.164,813.847c-320.215,193.33 -676.23,289.74 -1067.9,289.74c-391.699,0 -735.687,-96.41 -1031.99,-289.74c-296.585,-193.188 -516.136,-440.652 -659.05,-742.391l0,952.761l-555.792,-0l0,-5875.3l555.792,-0l0,2485.11c142.914,-301.735 362.465,-547.793 659.05,-738.389c296.301,-190.486 640.289,-285.855 1031.99,-285.855c396.969,0 754.418,91.37 1071.9,273.969Z" style="fill:#fff;fill-rule:nonzero;"/></g></g></svg>