<?xml version="1.0" encoding="UTF-8" standalone="no"?><!DOCTYPE svg PUBLIC "-//W3C//DTD SVG 1.1//EN" "http://www.w3.org/Graphics/SVG/1.1/DTD/svg11.dtd"><svg width="100%" height="100%" viewBox="0 0 8334 8334" version="1.1" xmlns="http://www.w3.org/2000/svg" xmlns:xlink="http://www.w3.org/1999/xlink" xml:space="preserve" xmlns:serif="http://www.serif.com/" style="fill-rule:evenodd;clip-rule:evenodd;stroke-linejoin:round;stroke-miterlimit:2;"><g><g><path d="M876.488,7905.31c14.266,-25.279 33.742,-44.981 58.404,-59.341c24.675,-14.243 52.079,-21.363 82.213,-21.363c35.367,-0 66.261,8.544 92.656,25.635c26.395,16.972 45.61,41.183 57.739,72.634l-50.773,0c-8.984,-19.582 -21.956,-34.655 -38.857,-45.218c-16.912,-10.563 -37.183,-15.785 -60.765,-15.785c-22.669,-0 -43.012,5.222 -61.016,15.785c-18.004,10.563 -32.151,25.517 -42.381,44.981c-10.243,19.345 -15.358,42.133 -15.358,68.124c0,25.873 5.115,48.423 15.358,67.768c10.23,19.465 24.377,34.419 42.381,44.982c18.004,10.562 38.347,15.784 61.016,15.784c23.582,0 43.853,-5.222 60.765,-15.547c16.901,-10.445 29.873,-25.398 38.857,-44.981l50.773,-0c-12.129,31.095 -31.344,55.069 -57.739,71.922c-26.395,16.972 -57.289,25.398 -92.656,25.398c-30.134,0 -57.538,-7.002 -82.213,-21.126c-24.662,-14.123 -44.138,-33.824 -58.404,-58.985c-14.313,-25.042 -21.446,-53.526 -21.446,-85.215c-0,-31.57 7.133,-60.053 21.446,-85.452Z" style="fill:#fff;fill-rule:nonzero;"/><path d="M1449.66,8109.57c13.34,-7.121 24.129,-17.921 32.389,-32.163c8.189,-14.242 12.343,-31.688 12.343,-52.102c0,-20.532 -4.071,-37.86 -12.129,-52.221c-8.059,-14.241 -18.634,-24.923 -31.642,-31.807c-13.043,-7.002 -27.19,-10.562 -42.381,-10.562c-15.524,-0 -29.755,3.56 -42.631,10.562c-12.889,6.884 -23.203,17.566 -30.929,31.807c-7.762,14.361 -11.667,31.689 -11.667,52.221c0,20.77 3.822,38.335 11.417,52.577c7.596,14.361 17.744,24.924 30.502,31.926c12.711,7.002 26.692,10.444 41.883,10.444c15.228,-0 29.493,-3.561 42.845,-10.682Zm-107.764,31.689c-19.429,-10.919 -34.621,-26.348 -45.646,-46.406c-11.05,-20.057 -16.545,-43.2 -16.545,-69.548c0,-26.11 5.674,-49.135 16.996,-69.193c11.334,-20.057 26.775,-35.367 46.322,-46.049c19.559,-10.681 41.468,-16.141 65.68,-16.141c24.211,0 46.073,5.46 65.632,16.141c19.594,10.682 34.999,25.992 46.369,45.813c11.322,19.938 16.996,43.082 16.996,69.429c-0,26.348 -5.839,49.491 -17.506,69.548c-11.62,20.058 -27.357,35.487 -47.248,46.406c-19.844,10.8 -41.883,16.26 -66.131,16.26c-23.879,-0 -45.526,-5.46 -64.919,-16.26Z" style="fill:#fff;fill-rule:nonzero;"/><path d="M1846.88,7974.98c-7.762,-14.242 -18.266,-25.279 -31.475,-32.756c-13.174,-7.715 -27.7,-11.512 -43.521,-11.512c-15.809,-0 -30.253,3.797 -43.296,11.156c-13.055,7.476 -23.464,18.396 -31.19,32.638c-7.75,14.241 -11.667,31.095 -11.667,50.322c0,19.582 3.917,36.554 11.667,51.033c7.726,14.361 18.135,25.399 31.19,32.994c13.043,7.596 27.487,11.394 43.296,11.394c15.821,-0 30.347,-3.798 43.521,-11.394c13.209,-7.595 23.713,-18.633 31.475,-32.994c7.714,-14.479 11.619,-31.332 11.619,-50.559c-0,-19.227 -3.905,-36.079 -11.619,-50.322Zm-188.624,-18.871c10.575,-19.701 25.09,-35.011 43.557,-45.811c18.467,-10.919 39.023,-16.379 61.68,-16.379c22.372,0 41.753,4.867 58.203,14.48c16.449,9.613 28.708,21.719 36.803,36.317l-0,-46.524l42.845,-0l0,255.169l-42.845,0l-0,-47.591c-8.391,14.953 -20.9,27.297 -37.468,37.029c-16.628,9.85 -35.962,14.717 -57.989,14.717c-22.669,-0 -43.141,-5.579 -61.49,-16.735c-18.289,-11.156 -32.721,-26.941 -43.296,-47.117c-10.539,-20.058 -15.82,-43.082 -15.82,-68.836c0,-26.111 5.281,-49.017 15.82,-68.719Z" style="fill:#fff;fill-rule:nonzero;"/><path d="M2038.23,7956.11c10.562,-19.701 25.22,-35.011 44.019,-45.811c18.799,-10.919 40.281,-16.379 64.493,-16.379c31.344,0 57.193,7.596 77.5,22.906c20.354,15.192 33.789,36.317 40.281,63.259l-45.61,-0c-4.356,-15.548 -12.794,-27.773 -25.387,-36.792c-12.545,-9.02 -28.163,-13.411 -46.784,-13.411c-24.212,-0 -43.771,8.308 -58.666,24.804c-14.895,16.616 -22.36,40.115 -22.36,70.617c0,30.739 7.465,54.476 22.36,71.21c14.895,16.735 34.454,25.161 58.666,25.161c18.621,-0 34.157,-4.391 46.571,-13.055c12.379,-8.664 20.947,-21.126 25.6,-37.267l45.61,0c-6.788,26.111 -20.473,46.999 -40.945,62.665c-20.485,15.666 -46.121,23.5 -76.836,23.5c-24.212,-0 -45.694,-5.46 -64.493,-16.26c-18.799,-10.919 -33.457,-26.229 -44.019,-46.168c-10.54,-19.82 -15.821,-43.082 -15.821,-69.786c-0,-26.347 5.281,-49.491 15.821,-69.193Z" style="fill:#fff;fill-rule:nonzero;"/><path d="M2564.41,7905.79c15.523,8.308 27.724,20.651 36.59,37.029c8.806,16.497 13.257,36.555 13.257,60.172l-0,150.372l-41.92,0l0,-144.437c0,-25.399 -6.385,-44.862 -19.095,-58.392c-12.712,-13.53 -30.087,-20.296 -52.162,-20.296c-22.324,0 -40.115,7.003 -53.289,21.008c-13.221,14.004 -19.808,34.299 -19.808,61.003l-0,141.114l-42.382,0l0,-344.656l42.382,-0l-0,125.804c8.391,-13.055 19.939,-23.143 34.703,-30.264c14.728,-7.24 31.261,-10.8 49.597,-10.8c19.227,-0 36.591,4.154 52.127,12.343Z" style="fill:#fff;fill-rule:nonzero;"/><path d="M2790.7,7898.19l0,255.169l-42.37,0l0,-255.169l42.37,-0Zm-40.945,-49.847c-5.579,-5.578 -8.392,-12.462 -8.392,-20.532c0,-8.071 2.813,-14.836 8.392,-20.532c5.577,-5.46 12.413,-8.308 20.472,-8.308c7.762,-0 14.349,2.848 19.809,8.308c5.411,5.696 8.141,12.461 8.141,20.532c-0,8.07 -2.73,14.954 -8.141,20.532c-5.46,5.578 -12.047,8.426 -19.809,8.426c-8.059,0 -14.895,-2.848 -20.472,-8.426Z" style="fill:#fff;fill-rule:nonzero;"/><path d="M3127.38,7921.69c19.216,18.751 28.864,45.811 28.864,81.297l0,150.372l-41.919,0l-0,-144.437c-0,-25.399 -6.385,-44.862 -19.096,-58.392c-12.711,-13.53 -30.086,-20.296 -52.161,-20.296c-22.324,0 -40.115,7.003 -53.289,21.008c-13.222,14.004 -19.808,34.299 -19.808,61.003l-0,141.114l-42.382,0l-0,-255.169l42.382,-0l-0,36.317c8.39,-13.055 19.808,-23.143 34.24,-30.264c14.443,-7.24 30.335,-10.8 47.71,-10.8c31.048,-0 56.197,9.494 75.459,28.247Z" style="fill:#fff;fill-rule:nonzero;"/><path d="M3479.39,7974.98c-7.762,-14.242 -18.253,-25.279 -31.474,-32.756c-13.162,-7.715 -27.689,-11.512 -43.51,-11.512c-15.82,-0 -30.252,3.797 -43.307,11.156c-13.044,7.476 -23.452,18.396 -31.179,32.638c-7.761,14.241 -11.666,31.095 -11.666,50.322c0,19.582 3.905,36.554 11.666,51.033c7.727,14.361 18.135,25.399 31.179,32.994c13.055,7.596 27.487,11.394 43.307,11.394c15.821,-0 30.348,-3.798 43.51,-11.394c13.221,-7.595 23.712,-18.633 31.474,-32.994c7.727,-14.479 11.632,-31.332 11.632,-50.559c-0,-19.227 -3.905,-36.079 -11.632,-50.322Zm-25.386,-66.581c16.58,9.613 28.911,21.719 37.018,36.317l-0,-46.524l42.844,-0l0,260.748c0,23.262 -4.997,44.032 -14.895,62.19c-9.957,18.04 -24.175,32.282 -42.643,42.607c-18.455,10.207 -39.948,15.31 -64.456,15.31c-33.517,0 -61.467,-7.951 -83.839,-23.736c-22.324,-15.785 -35.545,-37.386 -39.568,-64.683l41.918,0c4.665,15.429 14.266,28.009 28.876,37.386c14.563,9.494 32.092,14.242 52.613,14.242c23.25,-0 42.263,-7.241 57.027,-21.838c14.741,-14.598 22.123,-35.131 22.123,-61.478l-0,-53.527c-8.392,14.836 -20.818,27.297 -37.267,37.148c-16.449,9.97 -35.712,14.955 -57.739,14.955c-22.657,-0 -43.225,-5.579 -61.68,-16.735c-18.467,-11.156 -32.994,-26.941 -43.569,-47.117c-10.527,-20.058 -15.809,-43.082 -15.809,-68.836c0,-26.111 5.282,-49.017 15.809,-68.719c10.575,-19.701 25.102,-35.011 43.569,-45.811c18.455,-10.919 39.023,-16.379 61.68,-16.379c22.027,0 41.372,4.867 57.988,14.48Z" style="fill:#fff;fill-rule:nonzero;"/><path d="M4000.2,8112.77c13.506,-6.528 26.312,-16.616 38.394,-30.264l-95.421,-95.897c-39.736,15.192 -59.626,39.284 -59.626,72.16c-0,18.396 6.586,33.587 19.796,45.693c13.186,12.106 30.347,18.159 51.449,18.159c16.794,-0 31.89,-3.324 45.408,-9.851Zm108.726,40.589l-42.381,-42.844c-15.821,16.378 -32.733,28.603 -50.738,36.554c-18.004,7.833 -38.347,11.869 -61.015,11.869c-22.36,-0 -42.121,-4.036 -59.366,-12.106c-17.209,-8.071 -30.561,-19.583 -40.044,-34.537c-9.482,-14.835 -14.182,-32.282 -14.182,-52.102c0,-22.668 6.421,-42.608 19.31,-59.816c12.877,-17.209 31.89,-30.858 57.027,-40.709c-9.91,-11.868 -17.091,-22.668 -21.398,-32.637c-4.368,-9.97 -6.516,-20.77 -6.516,-32.638c-0,-13.649 3.489,-25.992 10.456,-37.03c7.002,-11.038 16.995,-19.583 30.038,-25.754c13.056,-6.29 28.081,-9.376 45.16,-9.376c16.782,-0 31.344,3.323 43.77,9.851c12.414,6.527 21.731,15.547 27.938,27.178c6.208,11.631 9.021,24.568 8.403,38.928l-42.394,-0c0.297,-12.817 -3.275,-22.787 -10.693,-30.027c-7.477,-7.358 -17.09,-11.037 -28.876,-11.037c-12.426,-0 -22.442,3.56 -30.038,10.563c-7.608,7.002 -11.418,15.903 -11.418,26.704c-0,9.375 2.552,18.395 7.679,27.059c5.163,8.664 13.767,19.345 25.849,32.163l96.846,97.321l8.391,-13.056l31.688,-53.17l45.61,0l-38.18,66.226c-5.293,9.257 -11.5,18.989 -18.633,29.315l73.145,73.108l-55.438,0Z" style="fill:#fff;fill-rule:nonzero;"/><path d="M4463.73,7905.31c14.241,-25.279 33.824,-44.981 58.379,-59.341c24.699,-14.243 52.103,-21.363 82.26,-21.363c35.368,-0 66.214,8.544 92.68,25.635c26.36,16.972 45.587,41.183 57.693,72.634l-50.797,0c-8.901,-19.582 -21.837,-34.655 -38.81,-45.218c-16.865,-10.563 -37.148,-15.785 -60.766,-15.785c-22.669,-0 -42.963,5.222 -61.003,15.785c-18.04,10.563 -32.163,25.517 -42.37,44.981c-10.206,19.345 -15.31,42.133 -15.31,68.124c-0,25.873 5.104,48.423 15.31,67.768c10.207,19.465 24.33,34.419 42.37,44.982c18.04,10.562 38.334,15.784 61.003,15.784c23.618,0 43.901,-5.222 60.766,-15.547c16.973,-10.445 29.909,-25.398 38.81,-44.981l50.797,-0c-12.106,31.095 -31.333,55.069 -57.693,71.922c-26.466,16.972 -57.312,25.398 -92.68,25.398c-30.157,0 -57.561,-7.002 -82.26,-21.126c-24.555,-14.123 -44.138,-33.824 -58.379,-58.985c-14.242,-25.042 -21.364,-53.526 -21.364,-85.215c0,-31.57 7.122,-60.053 21.364,-85.452Z" style="fill:#fff;fill-rule:nonzero;"/><path d="M5036.5,8109.57c13.293,-7.121 24.092,-17.921 32.401,-32.163c8.188,-14.242 12.343,-31.688 12.343,-52.102c0,-20.532 -4.155,-37.86 -12.106,-52.221c-8.071,-14.241 -18.753,-24.923 -31.689,-31.807c-13.055,-7.002 -27.179,-10.562 -42.369,-10.562c-15.548,-0 -29.79,3.56 -42.609,10.562c-12.936,6.884 -23.261,17.566 -30.976,31.807c-7.715,14.361 -11.631,31.689 -11.631,52.221c0,20.77 3.798,38.335 11.394,52.577c7.595,14.361 17.683,24.924 30.502,31.926c12.698,7.002 26.704,10.444 41.896,10.444c15.19,-0 29.433,-3.561 42.844,-10.682Zm-107.765,31.689c-19.465,-10.919 -34.655,-26.348 -45.693,-46.406c-11.037,-20.057 -16.497,-43.2 -16.497,-69.548c-0,-26.11 5.696,-49.135 16.972,-69.193c11.274,-20.057 26.823,-35.367 46.287,-46.049c19.581,-10.681 41.539,-16.141 65.749,-16.141c24.212,0 46.05,5.46 65.633,16.141c19.583,10.682 35.011,25.992 46.287,45.813c11.393,19.938 17.089,43.082 17.089,69.429c0,26.348 -5.934,49.491 -17.565,69.548c-11.63,20.058 -27.296,35.487 -47.235,46.406c-19.821,10.8 -41.896,16.26 -66.106,16.26c-23.856,-0 -45.576,-5.46 -64.921,-16.26Z" style="fill:#fff;fill-rule:nonzero;"/><path d="M5445.36,7921.69c19.227,18.751 28.841,45.811 28.841,81.297l-0,150.372l-41.896,0l0,-144.437c0,-25.399 -6.409,-44.862 -19.108,-58.392c-12.7,-13.53 -30.146,-20.296 -52.221,-20.296c-22.312,0 -40.115,7.003 -53.288,21.008c-13.174,14.004 -19.821,34.299 -19.821,61.003l-0,141.114l-42.369,0l-0,-255.169l42.369,-0l-0,36.317c8.427,-13.055 19.821,-23.143 34.3,-30.264c14.479,-7.24 30.383,-10.8 47.711,-10.8c31.095,-0 56.137,9.494 75.482,28.247Z" style="fill:#fff;fill-rule:nonzero;"/><path d="M5645.94,8147.55c-15.429,-6.765 -27.771,-16.022 -36.672,-28.009c-9.02,-11.869 -14.006,-25.636 -14.955,-41.183l43.794,-0c1.186,12.698 7.239,23.143 17.921,31.213c10.682,8.071 24.805,12.106 42.133,12.106c16.141,-0 28.84,-3.56 38.216,-10.681c9.258,-7.24 13.887,-16.142 13.887,-27.06c-0,-11.157 -4.986,-19.465 -14.836,-24.924c-9.97,-5.459 -25.279,-10.8 -46.168,-16.022c-18.872,-4.985 -34.3,-10.088 -46.287,-15.191c-11.987,-5.104 -22.193,-12.7 -30.738,-22.788c-8.547,-10.088 -12.819,-23.38 -12.819,-39.759c-0,-13.055 3.917,-25.042 11.631,-35.842c7.833,-10.919 18.871,-19.583 33.113,-25.873c14.241,-6.409 30.502,-9.614 48.897,-9.614c28.247,0 51.035,7.24 68.362,21.482c17.446,14.242 26.704,33.825 28.009,58.63l-42.369,-0c-0.95,-13.293 -6.291,-24.093 -16.141,-32.163c-9.733,-7.952 -22.788,-11.987 -39.285,-11.987c-15.192,-0 -27.298,3.204 -36.316,9.732c-9.02,6.527 -13.53,15.072 -13.53,25.635c-0,8.308 2.729,15.192 8.188,20.651c5.459,5.46 12.225,9.851 20.532,13.056c8.19,3.204 19.583,6.883 34.181,10.918c18.278,4.985 33.232,9.851 44.744,14.717c11.393,4.748 21.245,11.987 29.433,21.6c8.309,9.614 12.581,22.194 12.819,37.742c0,14.004 -3.799,26.585 -11.632,37.741c-7.713,11.156 -18.633,19.939 -32.755,26.348c-14.125,6.29 -30.384,9.495 -48.662,9.495c-19.581,-0 -37.148,-3.324 -52.695,-9.97Z" style="fill:#fff;fill-rule:nonzero;"/><path d="M6142.86,7898.19l-0,255.169l-42.371,0l0,-37.741c-8.07,13.056 -19.344,23.143 -33.824,30.502c-14.361,7.239 -30.264,10.918 -47.711,10.918c-19.82,0 -37.741,-4.034 -53.525,-12.342c-15.905,-8.19 -28.366,-20.532 -37.505,-37.03c-9.138,-16.378 -13.767,-36.436 -13.767,-60.053l-0,-149.423l42.014,-0l0,143.845c0,25.161 6.291,44.506 18.989,58.035c12.817,13.412 30.146,20.177 52.221,20.177c22.668,-0 40.47,-7.002 53.527,-20.889c13.054,-14.004 19.581,-34.299 19.581,-61.003l0,-140.165l42.371,-0Z" style="fill:#fff;fill-rule:nonzero;"/><rect x="6279.23" y="7808.71" width="42.369" height="344.656" style="fill:#fff;fill-rule:nonzero;"/><path d="M6510.66,7933.09l-0,150.372c-0,12.462 2.611,21.244 7.952,26.348c5.222,5.103 14.36,7.714 27.415,7.714l31.214,0l0,35.842l-38.216,0c-23.499,0 -41.182,-5.459 -53.051,-16.377c-11.749,-10.801 -17.683,-28.604 -17.683,-53.527l-0,-150.372l-32.995,-0l0,-34.893l32.995,-0l-0,-64.326l42.369,-0l-0,64.326l66.581,-0l0,34.893l-66.581,-0Z" style="fill:#fff;fill-rule:nonzero;"/><path d="M6735.57,7898.19l0,255.169l-42.369,0l0,-255.169l42.369,-0Zm-40.945,-49.847c-5.578,-5.578 -8.426,-12.462 -8.426,-20.532c0,-8.071 2.848,-14.836 8.426,-20.532c5.578,-5.46 12.344,-8.308 20.413,-8.308c7.834,-0 14.362,2.848 19.821,8.308c5.459,5.696 8.189,12.461 8.189,20.532c-0,8.07 -2.73,14.954 -8.189,20.532c-5.459,5.578 -11.987,8.426 -19.821,8.426c-8.069,0 -14.835,-2.848 -20.413,-8.426Z" style="fill:#fff;fill-rule:nonzero;"/><path d="M7072.27,7921.69c19.11,18.751 28.841,45.811 28.841,81.297l0,150.372l-41.896,0l0,-144.437c0,-25.399 -6.407,-44.862 -19.107,-58.392c-12.699,-13.53 -30.146,-20.296 -52.221,-20.296c-22.313,0 -40.115,7.003 -53.289,21.008c-13.174,14.004 -19.819,34.299 -19.819,61.003l-0,141.114l-42.371,0l-0,-255.169l42.371,-0l-0,36.317c8.426,-13.055 19.819,-23.143 34.298,-30.264c14.362,-7.24 30.265,-10.8 47.711,-10.8c30.976,-0 56.137,9.494 75.482,28.247Z" style="fill:#fff;fill-rule:nonzero;"/><path d="M7423.82,7974.98c-7.714,-14.242 -18.277,-25.279 -31.45,-32.756c-13.174,-7.715 -27.654,-11.512 -43.558,-11.512c-15.784,-0 -30.265,3.797 -43.319,11.156c-13.055,7.476 -23.381,18.396 -31.095,32.638c-7.834,14.241 -11.75,31.095 -11.75,50.322c0,19.582 3.916,36.554 11.75,51.033c7.714,14.361 18.04,25.399 31.095,32.994c13.054,7.596 27.535,11.394 43.319,11.394c15.904,-0 30.384,-3.798 43.558,-11.394c13.173,-7.595 23.736,-18.633 31.45,-32.994c7.714,-14.479 11.632,-31.332 11.632,-50.559c-0,-19.227 -3.918,-36.079 -11.632,-50.322Zm-25.397,-66.581c16.614,9.613 28.958,21.719 37.029,36.317l-0,-46.524l42.844,-0l0,260.748c0,23.262 -4.985,44.032 -14.954,62.19c-9.851,18.04 -24.093,32.282 -42.607,42.607c-18.396,10.207 -39.879,15.31 -64.446,15.31c-33.468,0 -61.478,-7.951 -83.791,-23.736c-22.311,-15.785 -35.605,-37.386 -39.64,-64.683l42.015,0c4.629,15.429 14.241,28.009 28.839,37.386c14.481,9.494 32.045,14.242 52.577,14.242c23.262,-0 42.252,-7.241 57.088,-21.838c14.717,-14.598 22.075,-35.131 22.075,-61.478l-0,-53.527c-8.428,14.836 -20.77,27.297 -37.267,37.148c-16.497,9.97 -35.724,14.955 -57.68,14.955c-22.669,-0 -43.32,-5.579 -61.716,-16.735c-18.514,-11.156 -32.995,-26.941 -43.556,-47.117c-10.563,-20.058 -15.905,-43.082 -15.905,-68.836c0,-26.111 5.342,-49.017 15.905,-68.719c10.561,-19.701 25.042,-35.011 43.556,-45.811c18.396,-10.919 39.047,-16.379 61.716,-16.379c21.956,0 41.302,4.867 57.918,14.48Z" style="fill:#fff;fill-rule:nonzero;"/><path d="M2040.05,1618.89l-225.499,0l0,-1564.6l1658.86,0l0,225.499l-1433.36,-0l-0,1339.1Z" style="fill:#fff;fill-rule:nonzero;"/><path d="M7478.29,7168.77l-1658.84,-0l-0,-225.499l1433.34,0l-0,-1339.11l225.498,-0l0,1564.6Z" style="fill:#fff;fill-rule:nonzero;"/><path d="M1110.69,7369.46c19.464,-17.09 29.195,-40.827 29.195,-71.21c0,-29.433 -10.8,-52.814 -32.388,-70.142c-21.624,-17.328 -50.215,-26.11 -85.82,-26.11l-116.785,-0l0,192.979l123.194,0c35.605,0 63.139,-8.545 82.604,-25.517Zm-205.798,-208.052l116.084,0c33.22,0 59.093,-7.833 77.62,-23.736c18.502,-15.904 27.771,-37.505 27.771,-64.564c0,-26.941 -9.269,-48.661 -27.771,-64.802c-18.527,-16.021 -44.4,-24.211 -77.62,-24.211l-116.084,0l0,177.313Zm254.221,63.021c19.463,23.618 29.195,50.322 29.195,80.112c0,23.855 -6.527,45.692 -19.57,65.631c-13.068,19.821 -31.701,35.724 -55.901,47.355c-24.211,11.631 -52.232,17.447 -84.027,17.447l-173.765,-0l-0,-491.469l165.931,0c50.311,0 88.883,12.225 115.717,36.792c26.799,24.449 40.222,55.901 40.222,94.235c0,54.713 -31.321,90.318 -93.998,106.815c31.333,5.341 56.731,19.701 76.196,43.082Z" style="fill:#fff;fill-rule:nonzero;"/><path d="M1377.37,7100.16c-22.075,12.462 -39.652,30.265 -52.696,53.883c-13.066,23.38 -19.582,51.153 -19.582,82.96c0,31.807 6.646,60.054 19.939,84.621c13.281,24.805 30.846,43.913 52.683,57.442c21.838,13.412 45.586,20.296 71.21,20.296c26.099,-0 50.215,-6.528 72.279,-19.702c22.087,-12.936 39.64,-31.451 52.719,-55.544c13.043,-23.855 19.559,-51.746 19.559,-83.553c0,-31.807 -6.516,-59.816 -19.559,-83.672c-13.079,-23.974 -30.632,-42.488 -52.719,-55.662c-22.064,-12.937 -46.18,-19.464 -72.279,-19.464c-25.624,-0 -49.491,6.171 -71.554,18.395Zm157.019,-35.605c26.572,17.21 46.298,39.166 59.092,66.226l0,-84.621l49.859,-0l-0,388.807l-49.859,-0l0,-85.571c-12.794,27.179 -32.52,49.372 -59.092,66.7c-26.586,17.328 -57.455,25.873 -92.574,25.873c-35.142,-0 -67.068,-8.545 -95.789,-25.873c-28.721,-17.328 -51.259,-41.658 -67.638,-73.109c-16.39,-31.214 -24.567,-66.581 -24.567,-105.984c-0,-39.403 8.177,-74.059 24.567,-104.086c16.379,-29.79 38.809,-53.051 67.294,-69.429c28.472,-16.26 60.528,-24.568 96.133,-24.568c35.119,0 65.988,8.664 92.574,25.635Z" style="fill:#fff;fill-rule:nonzero;"/><path d="M2076.99,7046.16l0,388.807l-49.847,-0l0,-63.378c-13.292,23.263 -31.225,40.828 -53.764,52.577c-22.549,11.868 -47.591,17.803 -75.114,17.803c-27.546,-0 -52.838,-6.053 -75.851,-18.04c-23.024,-12.225 -41.42,-30.62 -55.176,-55.662c-13.79,-24.806 -20.663,-55.07 -20.663,-90.675l0,-231.432l49.136,-0l-0,222.057c-0,42.725 10.325,75.363 30.976,97.557c20.663,22.431 48.778,33.588 84.383,33.588c36.081,-0 64.446,-11.157 85.109,-33.588c20.639,-22.194 30.964,-54.832 30.964,-97.557l0,-222.057l49.847,-0Z" style="fill:#fff;fill-rule:nonzero;"/><path d="M2536.3,7238.67c14.253,21.719 21.362,47.355 21.362,77.382c0,26.11 -6.539,48.66 -19.583,67.887c-13.067,19.345 -29.908,33.824 -50.559,43.557c-20.651,9.613 -42.132,14.479 -64.445,14.479c-22.324,-0 -43.438,-4.51 -63.365,-13.53c-19.951,-8.901 -36.211,-22.194 -48.791,-39.878c-12.58,-17.446 -18.87,-38.335 -18.87,-62.546l46.998,0c1.425,21.363 9.364,38.691 23.855,51.984c14.48,13.292 34.538,19.82 60.173,19.82c27.072,-0 47.711,-7.833 61.953,-23.737c14.242,-15.904 21.363,-35.249 21.363,-58.036c0,-18.159 -5.103,-34.537 -15.311,-49.61c-10.218,-14.954 -26.703,-29.671 -49.49,-44.506l-114.648,-74.771l-0,-29.789l26.347,-13.649c32.282,-16.497 48.435,-42.607 48.435,-78.212c-0,-23.737 -7.738,-43.32 -23.155,-58.868c-15.429,-15.309 -35.012,-23.143 -58.749,-23.143c-24.685,0 -45.206,8.189 -61.596,24.212c-16.379,16.26 -24.567,37.385 -24.567,63.495l-0,403.762l-49.847,-0l-0,-401.031c-0,-26.942 6.053,-50.56 18.158,-70.736c12.106,-20.176 28.484,-35.605 49.135,-46.406c20.651,-10.562 43.556,-15.903 68.717,-15.903c28.959,0 53.408,5.697 73.347,17.091c19.951,11.393 34.893,26.11 44.862,44.149c9.97,18.041 14.955,37.267 14.955,57.562c-0,45.219 -22.562,79.874 -67.639,104.085l79.744,51.153c33.219,21.007 56.968,42.252 71.211,63.733Z" style="fill:#fff;fill-rule:nonzero;"/><path d="M5773.64,1556.07c-197.371,-0 -367.207,73.347 -509.271,219.955c-142.183,146.646 -213.155,323.746 -213.155,531.275c-0,134.244 36.316,263.383 109.069,387.443c72.753,124.107 195.947,229 369.699,314.712c435.332,97.024 744.977,-100.94 928.936,-593.868c10.088,-157.92 -6.766,-309.052 -50.797,-453.442c-31.57,-65.407 -75.007,-127.455 -130.314,-186.12c-138.742,-146.608 -306.796,-219.955 -504.167,-219.955Zm-0,-233.486c285.314,0 522.207,103.219 710.558,309.622c173.752,188.385 260.628,412.281 260.628,671.711c2.256,640.69 2.256,966.096 0,976.256l-252.083,-0l-0,-421.292c-131.976,245.901 -371.716,383.502 -719.103,412.83c-284.248,-0 -516.392,-96.716 -696.198,-290.169c-179.924,-193.432 -269.886,-419.321 -269.886,-677.625c0,-257.174 85.097,-480.513 255.407,-670.015c188.351,-207.529 425.243,-311.318 710.677,-311.318Z" style="fill:#fff;fill-rule:nonzero;"/><path d="M2680.75,4428.36l240.263,-0l-0,866.27c-0,212.087 11.251,357.593 33.836,436.518c33.837,113.936 98.686,203.898 194.57,269.886c95.861,65.988 210.924,98.982 345.155,98.982c133.092,0 245.888,-32.163 338.402,-96.489c92.466,-64.327 156.212,-148.949 191.176,-253.746c24.804,-71.091 37.231,-222.769 37.231,-455.151l-0,-866.27l243.668,-0l0,911.964c0,256 -30.264,448.623 -90.555,577.75c-60.35,129.128 -150.313,230.128 -269.862,302.881c-119.562,72.752 -269.602,109.07 -450.06,109.07c-181.621,-0 -332.753,-36.318 -453.442,-109.07c-120.701,-72.753 -210.924,-174.821 -270.717,-306.204c-59.792,-131.501 -89.665,-329.109 -89.665,-593.061l-0,-893.33Z" style="fill:#fff;fill-rule:nonzero;"/><path d="M3214.48,1679.32c-103.682,61.371 -186.226,148.39 -247.538,260.996c-61.431,112.607 -92.027,243.669 -92.027,393.093c-0,149.469 30.596,280.483 92.027,393.091c61.312,112.653 143.856,199.613 247.538,260.925c103.67,61.372 215.79,92.028 336.183,92.028c120.451,-0 232.572,-31.797 336.301,-95.351c103.671,-63.544 186.772,-153.34 249.176,-269.317c62.452,-115.929 93.665,-248.678 93.665,-398.1c0,-149.41 -30.62,-279.393 -91.92,-389.767c-61.431,-110.436 -143.868,-194.559 -247.597,-252.607c-103.73,-57.929 -216.942,-86.96 -339.625,-86.96c-120.393,0 -232.513,30.656 -336.183,91.969Zm824.672,-177.29c133.804,76.943 239.194,185.681 316.102,326.165c77.025,140.546 115.479,303.356 115.479,488.49c-0,185.146 -38.454,351.28 -115.479,498.459c-76.908,147.239 -182.892,261.531 -317.787,342.936c-134.931,81.465 -284.947,122.09 -449.989,122.09c-165.053,-0 -310.001,-40.625 -434.855,-122.09c-124.974,-81.405 -217.488,-185.68 -277.708,-312.826l-0,401.471l-234.198,-0l-0,-2475.71l234.198,-0l-0,1047.17c60.22,-127.145 152.734,-230.828 277.708,-311.14c124.854,-80.267 269.802,-120.453 434.855,-120.453c167.273,0 317.894,38.501 451.674,115.444Z" style="fill:#fff;fill-rule:nonzero;"/><path d="M6370.62,4380.3c-48.541,-87.826 -121.413,-159.63 -218.614,-215.173c-97.084,-55.425 -216.36,-83.316 -357.356,-83.316c-122.72,-0 -234.281,26.099 -335.044,78.094c-30.145,15.547 -58.392,33.231 -84.858,53.17c-16.378,12.224 -32.045,25.161 -46.881,39.047c-41.42,38.334 -77.263,82.841 -107.526,133.4c-59.104,98.27 -88.656,213.405 -88.656,345.25l-0,856.42c-0,131.857 29.552,246.98 88.656,345.25c40.47,67.649 90.793,124.262 151.084,169.836c1.067,0.949 2.254,1.78 3.323,2.611l0,-1387.88c0,-127.347 39.877,-230.246 119.632,-308.933c79.874,-78.687 179.925,-117.971 300.27,-117.971c115.598,-0 211.018,37.622 286.265,112.749c75.126,75.245 112.749,170.667 112.749,286.264c-0,173.516 -78.687,300.863 -235.943,381.805l-128.416,65.869l-0,30.146l286.739,0c3.324,-1.78 6.647,-3.561 9.851,-5.46c1.543,-0.83 2.967,-1.661 4.51,-2.492c208.646,-117.496 313.087,-283.416 313.087,-497.627c-0,-99.339 -24.33,-193.099 -72.872,-281.055Z" style="fill:#fff;fill-rule:nonzero;"/><path d="M6161.62,5170.25c-5.221,-3.086 -10.444,-5.934 -15.903,-8.783l-316.291,0l-0,33.232l141.708,72.634c173.397,89.369 260.272,229.89 260.272,421.326c0,127.466 -41.539,232.738 -124.38,315.817c-83.078,82.841 -188.35,124.38 -315.816,124.38c-78.212,0 -148.592,-14.954 -211.257,-45.099l-0,249.116c66.7,17.209 137.198,25.873 211.257,25.873c155.475,0 287.094,-30.858 394.266,-91.979c107.171,-61.242 187.639,-140.522 241.166,-237.367c53.526,-97.083 80.466,-200.576 80.466,-310.12c-0,-236.418 -115.241,-419.428 -345.488,-549.03Zm-795.89,689.788l5.697,242.233c1.067,0.949 2.254,1.78 3.323,2.611l0,-224.549c-3.205,-6.646 -6.291,-13.411 -9.02,-20.295Zm-37.861,-1607.92l0,1405.69c0,75.126 12.581,142.539 37.861,202.236l-37.861,-1607.92Z" style="fill:#fff;fill-rule:nonzero;"/><rect x="5131.68" y="5492.72" width="243.063" height="1021.63" style="fill:#fff;fill-rule:nonzero;"/></g></g></svg>