<?xml version="1.0" encoding="UTF-8" standalone="no"?><!DOCTYPE svg PUBLIC "-//W3C//DTD SVG 1.1//EN" "http://www.w3.org/Graphics/SVG/1.1/DTD/svg11.dtd"><svg width="100%" height="100%" viewBox="0 0 8334 8334" version="1.1" xmlns="http://www.w3.org/2000/svg" xmlns:xlink="http://www.w3.org/1999/xlink" xml:space="preserve" xmlns:serif="http://www.serif.com/" style="fill-rule:evenodd;clip-rule:evenodd;stroke-linejoin:round;stroke-miterlimit:2;"><rect x="-0" y="0" width="8333.33" height="8333.33" style="fill:#1a222c;"/><g><g><path d="M1404.17,2054.67l-239.006,-0l0,-1658.32l1758.23,0l0,239.006l-1519.22,0l0,1419.32Z" style="fill:#fff;fill-rule:nonzero;"/><path d="M7168.17,7936.99l-1758.2,-0l0,-239.006l1519.2,-0l-0,-1419.32l239.006,-0l-0,1658.32Z" style="fill:#fff;fill-rule:nonzero;"/><path d="M5361.41,1988.09c-209.193,0 -389.203,77.741 -539.776,233.131c-150.699,155.431 -225.923,343.138 -225.923,563.099c-0,142.284 38.492,279.159 115.603,410.65c77.11,131.542 207.683,242.717 391.844,333.564c461.408,102.836 789.6,-106.987 984.579,-629.441c10.692,-167.38 -7.171,-327.564 -53.84,-480.604c-33.461,-69.324 -79.5,-135.089 -138.12,-197.268c-147.052,-155.39 -325.173,-233.131 -534.367,-233.131Zm0,-247.471c302.405,-0 553.488,109.402 753.121,328.168c184.16,199.669 276.24,436.977 276.24,711.947c2.391,679.067 2.391,1023.97 -0,1034.73l-267.184,-0l0,-446.527c-139.881,260.629 -393.981,406.473 -762.177,437.557c-301.274,0 -547.323,-102.509 -737.899,-307.55c-190.703,-205.018 -286.053,-444.438 -286.053,-718.214c0,-272.579 90.194,-509.296 270.706,-710.149c199.633,-219.961 450.715,-329.966 753.246,-329.966Z" style="fill:#fff;fill-rule:nonzero;"/><path d="M2083.25,5032.43l254.655,0l0,918.16c0,224.792 11.925,379.014 35.864,462.666c35.863,120.761 104.596,216.112 206.224,286.052c101.603,69.941 223.558,104.912 365.83,104.912c141.064,-0 260.617,-34.091 358.672,-102.27c98.005,-68.18 165.569,-157.87 202.627,-268.945c26.291,-75.349 39.462,-236.113 39.462,-482.415l-0,-918.16l258.264,0l-0,966.591c-0,271.335 -32.077,475.496 -95.979,612.358c-63.966,136.863 -159.317,243.912 -286.028,321.023c-126.723,77.11 -285.75,115.604 -477.018,115.604c-192.5,-0 -352.685,-38.494 -480.603,-115.604c-127.931,-77.111 -223.559,-185.293 -286.933,-324.545c-63.374,-139.378 -95.037,-348.823 -95.037,-628.586l0,-946.841Z" style="fill:#fff;fill-rule:nonzero;"/><path d="M2648.95,2118.72c-109.893,65.048 -197.381,157.279 -262.366,276.63c-65.111,119.353 -97.54,258.265 -97.54,416.639c-0,158.423 32.429,297.285 97.54,416.637c64.985,119.402 152.473,211.571 262.366,276.555c109.879,65.048 228.716,97.54 356.32,97.54c127.666,0 246.503,-33.701 356.445,-101.062c109.881,-67.35 197.96,-162.525 264.102,-285.449c66.192,-122.874 99.276,-263.573 99.276,-421.946c-0,-158.36 -32.455,-296.128 -97.426,-413.115c-65.111,-117.05 -152.486,-206.212 -262.429,-267.737c-109.943,-61.4 -229.936,-92.169 -359.968,-92.169c-127.604,0 -246.441,32.492 -356.32,97.477Zm874.069,-187.909c141.82,81.552 253.523,196.803 335.037,345.703c81.639,148.964 122.396,321.526 122.396,517.75c-0,196.236 -40.757,372.321 -122.396,528.317c-81.514,156.058 -193.847,277.197 -336.823,363.478c-143.013,86.344 -302.015,129.403 -476.943,129.403c-174.939,-0 -328.57,-43.059 -460.903,-129.403c-132.46,-86.281 -230.515,-196.803 -294.343,-331.565l-0,425.519l-248.226,0l-0,-2624.01l248.226,0l-0,1109.89c63.828,-134.76 161.883,-244.654 294.343,-329.777c132.333,-85.075 285.964,-127.668 460.903,-127.668c177.293,0 336.936,40.807 478.729,122.359Z" style="fill:#fff;fill-rule:nonzero;"/><path d="M5994.14,4981.49c-51.448,-93.087 -128.685,-169.191 -231.709,-228.062c-102.899,-58.745 -229.319,-88.306 -378.761,-88.306c-130.071,-0 -248.315,27.662 -355.114,82.771c-31.95,16.479 -61.889,35.222 -89.94,56.355c-17.36,12.957 -33.965,26.669 -49.689,41.386c-43.902,40.631 -81.891,87.803 -113.968,141.391c-62.644,104.156 -93.966,226.188 -93.966,365.931l-0,907.719c-0,139.756 31.322,261.775 93.966,365.931c42.895,71.702 96.232,131.705 160.134,180.01c1.132,1.005 2.389,1.886 3.523,2.767l-0,-1471.02c-0,-134.975 42.266,-244.038 126.798,-327.438c84.658,-83.4 190.702,-125.038 318.256,-125.038c122.522,0 223.658,39.876 303.412,119.503c79.626,79.752 119.503,180.89 119.503,303.412c-0,183.909 -83.401,318.884 -250.076,404.675l-136.109,69.814l0,31.952l303.916,0c3.522,-1.887 7.045,-3.774 10.44,-5.787c1.635,-0.88 3.145,-1.761 4.78,-2.642c221.145,-124.534 331.841,-300.392 331.841,-527.435c0,-105.289 -25.786,-204.665 -77.237,-297.89Z" style="fill:#fff;fill-rule:nonzero;"/><path d="M5772.62,5818.76c-5.534,-3.271 -11.07,-6.29 -16.856,-9.309l-335.238,0l0,35.222l150.198,76.985c183.782,94.722 275.862,243.66 275.862,446.564c-0,135.101 -44.028,246.679 -131.831,334.734c-88.054,87.804 -199.632,131.831 -334.733,131.831c-82.897,0 -157.493,-15.85 -223.912,-47.801l0,264.039c70.695,18.239 145.417,27.422 223.912,27.422c164.788,0 304.291,-32.706 417.882,-97.489c113.591,-64.909 198.879,-148.939 255.612,-251.585c56.732,-102.898 85.286,-212.59 85.286,-328.696c-0,-250.579 -122.144,-444.552 -366.182,-581.917Zm-843.565,731.106l6.038,256.744c1.132,1.005 2.389,1.886 3.523,2.767l-0,-238c-3.397,-7.044 -6.668,-14.214 -9.561,-21.511Zm-40.128,-1704.24l-0,1489.89c-0,79.626 13.334,151.077 40.128,214.35l-40.128,-1704.24Z" style="fill:#fff;fill-rule:nonzero;"/><rect x="4681" y="6160.54" width="257.623" height="1082.82" style="fill:#fff;fill-rule:nonzero;"/></g></g></svg>