<?xml version="1.0" encoding="UTF-8" standalone="no"?><!DOCTYPE svg PUBLIC "-//W3C//DTD SVG 1.1//EN" "http://www.w3.org/Graphics/SVG/1.1/DTD/svg11.dtd"><svg width="100%" height="100%" viewBox="0 0 8334 8334" version="1.1" xmlns="http://www.w3.org/2000/svg" xmlns:xlink="http://www.w3.org/1999/xlink" xml:space="preserve" xmlns:serif="http://www.serif.com/" style="fill-rule:evenodd;clip-rule:evenodd;stroke-linejoin:round;stroke-miterlimit:2;"><g><g><path d="M1160.55,1868.42l-260.084,0l0,-1804.57l1913.29,0l0,260.084l-1653.2,-0l0,1544.49Z" style="fill-rule:nonzero;"/><path d="M7432.86,8269.49l-1913.26,0l-0,-260.084l1653.17,0l0,-1544.49l260.084,0l-0,1804.57Z" style="fill-rule:nonzero;"/><path d="M5466.77,1795.96c-227.642,-0 -423.526,84.596 -587.379,253.69c-163.989,169.138 -245.847,373.399 -245.847,612.757c0,154.833 41.887,303.778 125.798,446.865c83.911,143.143 225.999,264.123 426.4,362.981c502.099,111.905 859.235,-116.422 1071.41,-684.95c11.635,-182.141 -7.803,-356.452 -58.588,-522.988c-36.412,-75.438 -86.511,-147.002 -150.3,-214.665c-160.021,-169.094 -353.85,-253.69 -581.492,-253.69Zm-0,-269.296c329.073,-0 602.299,119.05 819.537,357.109c200.401,217.278 300.601,475.513 300.601,774.733c2.602,738.952 2.602,1114.27 0,1125.99l-290.746,-0l0,-485.906c-152.217,283.614 -428.726,442.32 -829.392,476.146c-327.843,-0 -595.592,-111.55 -802.974,-334.673c-207.52,-223.098 -311.279,-483.633 -311.279,-781.552c-0,-296.618 98.148,-554.21 294.579,-772.777c217.238,-239.358 490.462,-359.065 819.674,-359.065Z" style="fill-rule:nonzero;"/><path d="M1899.52,5108.78l277.112,-0l0,999.131c0,244.616 12.977,412.438 39.027,503.468c39.025,131.41 113.821,235.17 224.411,311.279c110.563,76.108 243.273,114.163 398.091,114.163c153.505,-0 283.601,-37.096 390.304,-111.288c106.648,-74.193 180.17,-171.793 220.496,-292.663c28.609,-81.995 42.942,-256.935 42.942,-524.959l-0,-999.131l281.04,-0l-0,1051.83c-0,295.263 -34.906,517.429 -104.444,666.361c-69.606,148.932 -173.366,265.423 -311.252,349.334c-137.898,83.91 -310.95,125.798 -519.086,125.798c-209.476,0 -383.787,-41.888 -522.987,-125.798c-139.212,-83.911 -243.273,-201.634 -312.237,-353.167c-68.962,-151.669 -103.417,-379.585 -103.417,-684.019l-0,-1030.34Z" style="fill-rule:nonzero;"/><path d="M2515.11,1938.12c-119.584,70.784 -214.788,171.149 -285.504,301.026c-70.852,129.878 -106.142,281.041 -106.142,453.381c0,172.395 35.29,323.502 106.142,453.38c70.716,129.932 165.92,230.229 285.504,300.944c119.569,70.784 248.886,106.142 387.743,106.142c138.925,0 268.242,-36.673 387.88,-109.975c119.571,-73.289 215.418,-176.857 287.393,-310.622c72.029,-133.71 108.03,-286.818 108.03,-459.157c0,-172.325 -35.316,-322.243 -106.018,-449.546c-70.852,-127.374 -165.933,-224.399 -285.571,-291.35c-119.639,-66.813 -250.214,-100.296 -391.714,-100.296c-138.857,-0 -268.174,35.357 -387.743,106.073Zm951.152,-204.48c154.326,88.743 275.88,214.158 364.583,376.189c88.839,162.101 133.19,349.882 133.19,563.41c0,213.542 -44.351,405.156 -133.19,574.909c-88.703,169.821 -210.942,301.642 -366.526,395.532c-155.626,93.959 -328.65,140.815 -519.004,140.815c-190.367,-0 -357.547,-46.856 -501.55,-140.815c-144.142,-93.89 -250.844,-214.158 -320.301,-360.805l0,463.045l-270.116,0l-0,-2855.42l270.116,-0l0,1207.77c69.457,-146.645 176.159,-266.229 320.301,-358.86c144.003,-92.577 311.183,-138.926 501.55,-138.926c192.928,-0 366.65,44.406 520.947,133.15Z" style="fill-rule:nonzero;"/><path d="M6155.31,5053.35c-55.986,-101.296 -140.034,-184.112 -252.143,-248.174c-111.974,-63.926 -249.543,-96.095 -412.164,-96.095c-141.541,0 -270.213,30.102 -386.431,90.072c-34.768,17.932 -67.347,38.328 -97.872,61.324c-18.89,14.1 -36.96,29.021 -54.071,45.036c-47.773,44.214 -89.113,95.547 -124.018,153.86c-68.169,113.341 -102.253,246.135 -102.253,398.202l-0,987.77c-0,152.08 34.084,284.86 102.253,398.202c46.677,78.024 104.718,143.319 174.256,195.884c1.231,1.094 2.6,2.053 3.833,3.011l-0,-1600.75c-0,-146.879 45.994,-265.559 137.981,-356.314c92.124,-90.756 207.519,-136.065 346.322,-136.065c133.327,0 243.382,43.393 330.169,130.042c86.649,86.785 130.042,196.842 130.042,330.169c0,200.127 -90.756,347.006 -272.13,440.362l-148.111,75.972l-0,34.77l330.717,-0c3.833,-2.054 7.666,-4.108 11.361,-6.297c1.779,-0.959 3.422,-1.917 5.202,-2.875c240.646,-135.517 361.105,-326.884 361.105,-573.949c0,-114.575 -28.06,-222.714 -84.048,-324.161Z" style="fill-rule:nonzero;"/><path d="M5914.25,5964.46c-6.022,-3.559 -12.046,-6.844 -18.343,-10.129l-364.801,-0l-0,38.327l163.443,83.775c199.99,103.075 300.19,265.148 300.19,485.945c-0,147.016 -47.91,268.434 -143.457,364.254c-95.82,95.547 -217.238,143.457 -364.253,143.457c-90.208,0 -171.382,-17.248 -243.658,-52.016l-0,287.323c76.93,19.848 158.241,29.841 243.658,29.841c179.32,0 331.126,-35.59 454.735,-106.086c123.609,-70.634 216.418,-162.074 278.153,-273.772c61.736,-111.973 92.808,-231.338 92.808,-357.684c-0,-272.677 -132.916,-483.756 -398.475,-633.235Zm-917.957,795.582l6.57,279.385c1.231,1.094 2.6,2.053 3.833,3.011l-0,-258.988c-3.696,-7.666 -7.255,-15.469 -10.403,-23.408Zm-43.668,-1854.53l-0,1621.28c-0,86.649 14.511,164.401 43.668,233.254l-43.668,-1854.53Z" style="fill-rule:nonzero;"/><rect x="4726.35" y="6336.38" width="280.342" height="1178.32" style="fill-rule:nonzero;"/></g></g></svg>